PathFileType	4	(X/Y/Z)	C:\Users\Biomechanik\SynologyDrive\AlexP\Athlete_03\Athlete_3_25_03_31\Squat_bw_01\marker_experimental.trc
DataRate	CameraRate	NumFrames	NumMarkers	Units	OrigDataRate	OrigDataStartFrame	OrigNumFrames
200.000000	200.000000	4	55	mm	200.000000	354	708
Frame#	Time	BL			BR			GLAB			RFHD			LFHD			C7			T6			SPINMOL			SPINM2			SPINM3			T12			BELTOL			BELT2			BELT3			SACROL			SACR2			SACR3			LTHOL			LTH2			LTH3			LSHAOL			LSHA2			LSHA3			LHEE			LTOE			LM5			RTHOL			RTH2			RTH3			RSHAOL			RSHA2			RSHA3			RHEE			RTOE			RM5			STRN			XIPH			LACR			LUAOL			LUA2			LUA3			LLAOL			LLA2			LLA3			LWRR			LWRU			RACR			RUAOL			RUA2			RUA3			RLAOL			RLA2			RLA3			RWRR			RWRU			
		X1	Y1	Z1	X2	Y2	Z2	X3	Y3	Z3	X4	Y4	Z4	X5	Y5	Z5	X6	Y6	Z6	X7	Y7	Z7	X8	Y8	Z8	X9	Y9	Z9	X10	Y10	Z10	X11	Y11	Z11	X12	Y12	Z12	X13	Y13	Z13	X14	Y14	Z14	X15	Y15	Z15	X16	Y16	Z16	X17	Y17	Z17	X18	Y18	Z18	X19	Y19	Z19	X20	Y20	Z20	X21	Y21	Z21	X22	Y22	Z22	X23	Y23	Z23	X24	Y24	Z24	X25	Y25	Z25	X26	Y26	Z26	X27	Y27	Z27	X28	Y28	Z28	X29	Y29	Z29	X30	Y30	Z30	X31	Y31	Z31	X32	Y32	Z32	X33	Y33	Z33	X34	Y34	Z34	X35	Y35	Z35	X36	Y36	Z36	X37	Y37	Z37	X38	Y38	Z38	X39	Y39	Z39	X40	Y40	Z40	X41	Y41	Z41	X42	Y42	Z42	X43	Y43	Z43	X44	Y44	Z44	X45	Y45	Z45	X46	Y46	Z46	X47	Y47	Z47	X48	Y48	Z48	X49	Y49	Z49	X50	Y50	Z50	X51	Y51	Z51	X52	Y52	Z52	X53	Y53	Z53	X54	Y54	Z54	X55	Y55	Z55	

355	1.77	960.6934814453125	36.22554016113293	-1933.545776367188	1063.184936523438	32.89162445068359	86.64456176757812	584.5534057617188	1010.281372070313	-1195.555786132812	542.4913330078125	1048.428100585938	-1132.720092773438	549.0916137695312	1043.35400390625	-1268.763793945312	304.0274658203125	961.9459838867189	-1201.913208007812	162.7578887939453	866.7172241210939	-1209.962524414062	137.6344451904297	841.7265625000001	-1231.648193359375	128.3669281005859	836.6831054687501	-1182.588500976562	96.52767181396484	791.3485717773439	-1218.872192382812	62.95297622680664	737.5306396484376	-1216.970947265625	27.55778312683105	729.0998535156251	-1232.987182617188	26.24447059631348	726.1524047851564	-1182.477416992188	-10.01394081115723	678.4875488281251	-1212.36865234375	-54.79919052124023	577.5986328125001	-1235.11669921875	-50.47682952880859	575.2037963867189	-1183.95947265625	-70.56655883789062	517.7409057617189	-1210.510620117188	139.7892456054688	426.0344238281251	-1504.475341796875	183.2357177734375	361.5681762695314	-1521.51171875	191.5751953125	410.0421447753907	-1533.402221679688	240.4465942382812	298.4313964843751	-1617.482788085938	179.0408020019531	258.2551879882814	-1585.9462890625	221.8836822509766	240.5852661132813	-1605.87548828125	108.0758590698242	71.7826461791993	-1480.166381835938	315.0821533203125	48.23450851440439	-1542.76904296875	241.4701843261719	27.20810127258311	-1628.057373046875	122.1611862182617	415.2023315429688	-915.51513671875	173.1447143554688	461.7627258300782	-874.7980346679688	175.1548309326172	412.6232910156251	-882.35888671875	219.9157409667969	310.1992187500001	-808.4954833984375	220.7975769042969	231.2906188964844	-807.9114990234375	188.5708160400391	261.4112854003907	-831.3570556640625	94.76307678222656	66.89375305175787	-965.7024536132812	286.9145812988281	46.69103622436529	-880.520263671875	202.3126068115234	39.10977554321294	-802.7838134765625	404.9822387695312	791.3079833984376	-1205.450317382812	344.1578674316406	656.5200805664064	-1203.64599609375	359.5880737304688	913.6557006835939	-1363.513427734375	261.880615234375	837.9019165039064	-1485.488891601562	208.9440307617188	803.7669067382814	-1506.09814453125	253.0171051025391	791.8347167968751	-1531.274047851562	268.1866455078125	725.6058349609376	-1617.359497070312	340.2077941894531	692.3372802734376	-1615.033081054688	327.531494140625	741.6551513671876	-1613.544799804688	419.5845947265625	789.3363647460939	-1603.88623046875	410.2740783691406	793.0469360351564	-1526.250122070312	347.7399291992188	910.6060791015626	-1058.103515625	254.9711608886719	842.1080322265626	-936.8499145507812	239.8248748779297	804.5601196289062	-885.3457641601562	203.9295654296875	803.107421875	-922.7494506835938	281.901123046875	754.9605102539062	-781.7984008789062	308.9949951171875	828.9002685546875	-794.4879150390625	335.5911254882812	786.5040283203125	-787.9786376953125	398.8081665039062	854.0235595703125	-807.466552734375	395.8968811035156	849.9219970703125	-885.8770751953125	
356	1.775	960.6937866210938	36.22554779052746	-1933.546508789062	1063.18505859375	32.89176559448241	86.6446533203125	584.7532958984375	1007.920349121094	-1195.529907226562	542.688720703125	1046.0634765625	-1132.688720703125	549.3065185546875	1041.011108398438	-1268.736206054688	304.2068176269531	959.7118530273439	-1201.930908203125	162.8961029052734	864.6513061523439	-1210.046508789062	137.7489776611328	839.6984863281251	-1231.744384765625	128.4749145507812	834.6489868164064	-1182.6845703125	96.60343933105469	789.3508300781251	-1218.988647460938	62.97389221191406	735.6435546875001	-1217.103515625	27.61797904968262	727.2885131835939	-1233.10205078125	26.30611419677734	724.3342285156251	-1182.580322265625	-9.974961280822754	676.6852416992189	-1212.48974609375	-54.83773422241211	575.5668945312501	-1235.2236328125	-50.48148727416992	573.1871948242189	-1184.068725585938	-70.54506683349609	515.7019042968751	-1210.597900390625	139.9105377197266	424.8723449707032	-1504.634643554688	183.6089477539062	360.6221313476564	-1521.826293945312	191.7555084228516	409.1534423828126	-1533.607543945312	240.6477203369141	298.2798461914064	-1617.604248046875	179.20703125	258.1601867675782	-1586.057739257812	222.0442810058594	240.453109741211	-1605.964233398438	108.1144866943359	71.77772521972665	-1480.103515625	315.0997619628906	48.21271514892587	-1542.7587890625	241.4594421386719	27.23138427734385	-1628.041748046875	122.2903671264648	414.0348205566407	-915.5094604492188	173.0958862304688	460.9097290039063	-874.91455078125	175.2799987792969	411.7540893554688	-882.3196411132812	220.1100616455078	310.0565795898438	-808.3871459960938	220.9589080810547	231.1462707519532	-807.8621826171875	188.7369384765625	261.2979125976563	-831.2728881835938	94.79806518554688	66.86808013916021	-965.7525634765625	286.92041015625	46.67550659179693	-880.5592651367188	202.3274688720703	39.12554550170903	-802.8110961914062	405.0766906738281	789.0003662109376	-1205.488159179688	344.1401672363281	654.3275146484376	-1203.743408203125	359.8893127441406	911.4016723632814	-1363.508666992188	262.3408508300781	835.7036743164064	-1485.639404296875	209.4148254394531	801.5963134765626	-1506.341064453125	253.530517578125	789.6371459960939	-1531.438110351562	268.8070373535156	723.4076538085939	-1617.505615234375	340.8179626464844	690.1039428710939	-1615.048217773438	328.1488647460938	739.4348144531251	-1613.584350585938	420.1973876953125	787.0925292968751	-1603.776489257812	410.7682800292969	790.8026733398439	-1526.150268554688	347.9081115722656	908.2903442382814	-1058.133422851562	255.1279602050781	839.8806762695314	-936.8617553710938	239.9602813720703	802.3504638671875	-885.3455200195312	204.0595550537109	800.9168090820312	-922.7405395507812	282.0229797363281	752.7679443359375	-781.7807006835938	309.1596374511719	826.677978515625	-794.4833374023438	335.7323913574219	784.24853515625	-788.045654296875	399.0134887695312	851.7236328125	-807.4966430664062	396.0003967285156	847.6915283203125	-885.9092407226562	
357	1.78	960.6941528320312	36.22530746459973	-1933.546997070312	1063.185302734375	32.89189529418945	86.64466094970703	584.94580078125	1005.562683105469	-1195.505004882812	542.882568359375	1043.703369140625	-1132.657958984375	549.5147705078125	1038.676025390625	-1268.705932617188	304.37353515625	957.4920654296876	-1201.949462890625	163.0218505859375	862.5953979492189	-1210.127807617188	137.8506774902344	837.6804809570314	-1231.836791992188	128.5732879638672	832.6217651367189	-1182.77490234375	96.66853332519531	787.3609008789064	-1219.101806640625	62.98742294311523	733.7617797851564	-1217.234741210938	27.66959190368652	725.4797363281251	-1233.2177734375	26.36345100402832	722.5182495117189	-1182.684692382812	-9.941527366638184	674.8817749023439	-1212.613403320312	-54.87587738037109	573.5292968750001	-1235.336303710938	-50.48864364624023	571.1641235351564	-1184.183837890625	-70.52210998535156	513.6561279296876	-1210.693725585938	140.053466796875	423.705047607422	-1504.792602539062	184.0061340332031	359.6721191406251	-1522.1328125	191.9594268798828	408.259002685547	-1533.806518554688	240.8648223876953	298.1269836425782	-1617.716674804688	179.38720703125	258.0667114257814	-1586.161743164062	222.2184753417969	240.3206634521485	-1606.044311523438	108.1533660888672	71.77380371093759	-1480.03955078125	315.117919921875	48.18879318237314	-1542.744018554688	241.4506988525391	27.25605201721201	-1628.024658203125	122.4232025146484	412.8668823242188	-915.5145874023438	173.0440368652344	460.0567932128907	-875.0382080078125	175.4064331054688	410.8866577148438	-882.2901611328125	220.3020477294922	309.9198303222657	-808.2892456054688	221.1164398193359	231.0079803466797	-807.818359375	188.9015655517578	261.1891174316407	-831.1979370117188	94.83352661132812	66.83957672119146	-965.8038330078125	286.9261169433594	46.65736770629888	-880.6006469726562	202.3425903320312	39.14212799072271	-802.8394775390625	405.1637573242188	786.7081298828126	-1205.528686523438	344.1155395507812	652.1575927734376	-1203.84521484375	360.1764831542969	909.1605224609376	-1363.50537109375	262.7900695800781	833.5203247070314	-1485.793090820312	209.8736419677734	799.4434204101564	-1506.59033203125	254.0328826904297	787.4546508789064	-1531.606079101562	269.4167785644531	721.2217407226564	-1617.65087890625	341.41552734375	687.8811035156251	-1615.066772460938	328.7554321289062	737.2262573242189	-1613.625732421875	420.8009643554688	784.8572387695314	-1603.666015625	411.2547912597656	788.5593872070314	-1526.049560546875	348.0657958984375	905.9888305664064	-1058.162475585938	255.2781372070312	837.6578979492189	-936.8734130859375	240.0930786132812	800.1434326171875	-885.347412109375	204.1853485107422	798.7283325195312	-922.732421875	282.1485595703125	750.5686645507812	-781.7692260742188	309.326171875	824.4512939453125	-794.4802856445312	335.8778381347656	781.9880981445312	-788.1121215820312	399.2208251953125	849.4189453125	-807.5310668945312	396.1065979003906	845.4579467773438	-885.9461059570312	
358	1.785	960.694580078125	36.22483062744153	-1933.547485351562	1063.185424804688	32.89196395874023	86.64458465576172	585.1301879882812	1003.210266113281	-1195.480712890625	543.0716552734375	1041.349243164062	-1132.626831054688	549.7160034179688	1036.350341796875	-1268.673095703125	304.5271301269531	955.2869873046876	-1201.96875	163.1349639892578	860.5493164062501	-1210.20556640625	137.9398956298828	835.6723632812501	-1231.924926757812	128.6623840332031	830.6009521484376	-1182.859130859375	96.72296142578125	785.3788452148439	-1219.2119140625	62.99374389648438	731.8853759765626	-1217.364624023438	27.71253967285156	723.6742553710939	-1233.334594726562	26.41643905639648	720.7042846679689	-1182.79150390625	-9.913711547851562	673.0770874023439	-1212.739990234375	-54.91440200805664	571.4844360351564	-1235.455932617188	-50.49954986572266	569.1332397460939	-1184.305908203125	-70.49788665771484	511.6018676757813	-1210.799194335938	140.2182922363281	422.5307617187501	-1504.948974609375	184.4280700683594	358.7168579101564	-1522.431030273438	192.1869201660156	407.3580017089845	-1533.999267578125	241.0974884033203	297.9729919433595	-1617.8203125	179.5807037353516	257.9749145507814	-1586.258911132812	222.4057006835938	240.1881103515626	-1606.116577148438	108.1926345825195	71.77105712890634	-1479.974731445312	315.13671875	48.16285705566415	-1542.724609375	241.4440612792969	27.28201484680186	-1628.006103515625	122.5605926513672	411.6977844238282	-915.5302734375	172.9899749755859	459.2027587890626	-875.1690063476562	175.5349273681641	410.0198669433594	-882.2705688476562	220.4927978515625	309.7876586914063	-808.2012939453125	221.2718505859375	230.8745269775391	-807.7802124023438	189.0657806396484	261.0837707519532	-831.1317749023438	94.86928558349609	66.8091659545899	-965.8557739257812	286.9315795898438	46.6370468139649	-880.6439208984375	202.3579864501953	39.15955352783208	-802.8690795898438	405.243408203125	784.4322509765626	-1205.571899414062	344.0861511230469	650.0074462890626	-1203.951171875	360.4483642578125	906.9338989257814	-1363.503784179688	263.2264709472656	831.3518676757814	-1485.949340820312	210.3197174072266	797.3071289062501	-1506.844360351562	254.5231628417969	785.2874145507814	-1531.777587890625	270.0152893066406	719.0483398437501	-1617.795654296875	342.0001831054688	685.6696166992189	-1615.089477539062	329.3507385253906	735.0302124023439	-1613.669067382812	421.3945922851562	782.6316528320314	-1603.555419921875	411.7332763671875	786.3180541992189	-1525.948852539062	348.2133178710938	903.7023925781251	-1058.19091796875	255.4223480224609	835.4401855468751	-936.884765625	240.2236175537109	797.9393310546875	-885.3514404296875	204.3072509765625	796.5427856445312	-922.7247924804688	282.2778015136719	748.3628540039062	-781.7643432617188	309.494384765625	822.220947265625	-794.479736328125	336.0270080566406	779.723876953125	-788.1774291992188	399.4293518066406	847.1109008789062	-807.5697631835938	396.2151794433594	843.2220458984375	-885.9877319335938	
